<?xml version="1.0" encoding="UTF-8"?>
<svg width="20px" height="20px" viewBox="0 0 20 20" version="1.1" xmlns="http://www.w3.org/2000/svg" xmlns:xlink="http://www.w3.org/1999/xlink">
    <g stroke="none" stroke-width="1" fill="none" fill-rule="evenodd">
        <path d="M3.86761924,4 C4.57014495,4 5.2211586,3.63140233 5.58260509,3.02899151 L5.91739491,2.47100849 C6.2788414,1.86859767 6.92985505,1.5 7.63238076,1.5 L12.3676192,1.5 C13.0701449,1.5 13.7211586,1.86859767 14.0826051,2.47100849 L14.4173949,3.02899151 C14.7788414,3.63140233 15.4298551,4 16.1323808,4 L18,4 C19.1045695,4 20,4.8954305 20,6 L20,15 C20,16.1045695 19.1045695,17 18,17 L2,17 C0.8954305,17 1.3527075e-16,16.1045695 0,15 L0,6 C-1.3527075e-16,4.8954305 0.8954305,4 2,4 L3.86761924,4 Z M10,14 C12.209139,14 14,12.209139 14,10 C14,7.790861 12.209139,6 10,6 C7.790861,6 6,7.790861 6,10 C6,12.209139 7.790861,14 10,14 Z" fill="#FFFFFF"></path>
    </g>
</svg>