<?xml version="1.0" encoding="UTF-8"?>
<svg width="20px" height="20px" viewBox="0 0 20 20" version="1.1" xmlns="http://www.w3.org/2000/svg" xmlns:xlink="http://www.w3.org/1999/xlink">
    <g stroke="none" stroke-width="1" fill="none" fill-rule="evenodd">
        <path d="M10,20 C4.4771525,20 0,15.5228475 0,10 C0,4.4771525 4.4771525,0 10,0 C15.5228475,0 20,4.4771525 20,10 C20,15.5228475 15.5228475,20 10,20 Z M11.8416681,13.2499736 C11.4964901,13.2499736 11.2166681,12.9701516 11.2166681,12.6249736 L11.2166681,8.34152631 C11.2166681,7.99634837 10.936846,7.71652631 10.5916681,7.71652631 L8.04650206,7.71652631 C7.70132406,7.71652631 7.42150206,7.99634837 7.42150206,8.34152631 L7.42150206,9.29733687 C7.42150206,9.64251481 7.70132406,9.92233687 8.04650206,9.92233687 L8.19786925,9.92233687 C8.54304719,9.92233687 8.82286925,10.2021589 8.82286925,10.5473369 L8.82286925,12.6249736 C8.82286925,12.9701516 8.54304719,13.2499736 8.19786925,13.2499736 L8.04650206,13.2499736 C7.70132406,13.2499736 7.42150206,13.5297956 7.42150206,13.8749736 L7.42150206,14.8222392 C7.42150206,15.1674172 7.70132406,15.4472392 8.04650206,15.4472392 L11.9588556,15.4472392 C12.3040335,15.4472392 12.5838556,15.1674172 12.5838556,14.8222392 L12.5838556,13.8749736 C12.5838556,13.5297956 12.3040335,13.2499736 11.9588556,13.2499736 L11.8416681,13.2499736 Z M11.3192071,5.00412398 C11.3192071,4.62023819 11.1844199,4.28701412 10.9200608,4.02265506 C10.6557017,3.75829601 10.3224777,3.62350874 9.93859187,3.62350874 C9.56340762,3.62350874 9.2349175,3.76321144 8.97120681,4.03424743 C8.70955631,4.30316603 8.5750665,4.63191889 8.5750665,5.00412398 C8.5750665,5.37632908 8.70955631,5.70508193 8.97120681,5.97400053 C9.2349175,6.24503652 9.56340762,6.38473919 9.93859187,6.38473919 C10.3126059,6.38473919 10.6425519,6.24601193 10.9115159,5.97704798 C11.1804798,5.70808402 11.3192071,5.37813804 11.3192071,5.00412398 Z" fill="#FFFFFF" fill-rule="nonzero"></path>
    </g>
</svg>