<?xml version="1.0" encoding="UTF-8"?>
<svg width="32px" height="32px" viewBox="0 0 32 32" version="1.1" xmlns="http://www.w3.org/2000/svg" xmlns:xlink="http://www.w3.org/1999/xlink">
    <!-- Generator: Sketch 54.1 (76490) - https://sketchapp.com -->
    <title>prompt-drag</title>
    <desc>Created with Sketch.</desc>
    <g stroke="none" stroke-width="1" fill="none" fill-rule="evenodd">
        <path d="M10.5305936,8.17450877 L10.0181906,6.71395016 C9.84492941,6.22008485 9.55556407,5.80012543 9.19145474,5.47394856 C14.8494395,3.30712341 20.943399,2.14973596 27.4656629,2.00039306 C28.2938729,1.98142921 28.9806431,2.63745286 28.9996069,3.4656629 C29.0185708,4.29387294 28.3625471,4.98064308 27.5343371,4.99960694 C21.4531013,5.13885143 15.7876204,6.19759406 10.5305936,8.17450877 Z" fill-opacity="0.6" fill="#60a5fa" fill-rule="nonzero"></path>
        <path d="M21.1530654,12.9402427 L21.218095,13.4558154 C21.2526513,13.7297871 21.5027626,13.9238716 21.7767343,13.8893153 C22.0507059,13.854759 22.2447904,13.6046477 22.2102342,13.330676 L22.1155664,12.5801241 C22.1402601,12.267412 22.5101811,12.1390725 23.0688009,12.2159901 C23.4852082,12.2733261 23.9602701,12.6507825 24.4939866,13.3483593 C24.6816158,13.5956032 24.8145574,13.8904188 24.8709843,14.217605 L25.9378185,20.4035409 C25.9404107,20.4185716 25.9428279,20.4335921 25.9450715,20.4486002 C26.7055387,24.308561 25.952602,26.9507992 23.6862612,28.3753148 C22.1632713,29.332595 13.4570558,32.3061063 8.46964741,25.6471353 C7.17951441,23.9246057 6.18982224,22.5747543 5.50057088,21.5975809 C5.11530365,21.0743713 4.72248152,20.5407202 4.32978176,20.0070871 C3.91966812,19.4497485 3.91966812,19.4497485 3.63024173,19.0563258 L3.3649065,18.6955982 C2.71049333,17.8057571 2.90134539,16.5538917 3.79118649,15.8994785 C4.6810276,15.2450653 5.93289303,15.4359174 6.58730619,16.3257585 L6.8523307,16.6860637 C7.14157119,17.0792337 7.14157119,17.0792337 7.55145645,17.6362619 C7.84882067,18.0403451 8.1462524,18.444435 8.44040782,18.843976 C8.44526787,18.8427824 8.45015302,18.841543 8.45506356,18.8402571 C8.51444246,18.9516095 8.64952084,19.0024732 8.7691604,18.9541506 C8.89718333,18.902442 8.95904828,18.7567408 8.90733964,18.6287178 L8.84720421,18.4798314 L5.30011627,8.36917674 C4.93445371,7.32688855 5.48296716,6.18551896 6.52525536,5.8198564 C7.56754355,5.45419384 8.70891314,6.00270729 9.0745757,7.04499548 L11.918473,15.1512687 C11.9216923,15.1515293 11.9249103,15.1517695 11.928127,15.1519893 L11.9796524,15.2980377 C12.0715246,15.5584491 12.357107,15.695077 12.6175184,15.6032047 C12.8779298,15.5113325 13.0145577,15.2257501 12.9226855,14.9653387 L12.5940167,14.0337291 C12.5907388,14.0182934 12.5876503,14.0028519 12.5847499,13.9874072 C12.4121279,13.3619041 12.2716147,12.39601 12.8213291,12.0646319 C13.2101788,11.8302262 13.7435499,11.6829089 14.4214425,11.6226802 L14.42106,11.6244197 C15.2741523,11.5683258 16.0939305,12.0680142 16.4151682,12.8958378 L16.4758708,13.0678991 L16.8382781,14.1248183 L16.8487303,14.124767 L16.8510317,14.1312901 C16.9429039,14.3917015 17.2284863,14.5283295 17.4888977,14.4364572 C17.7493091,14.3445849 17.885937,14.0590026 17.7940647,13.7985912 L17.3799466,12.6247758 C17.3827096,12.6184685 17.3855046,12.6121765 17.3883314,12.6059003 C17.2293754,11.8865078 17.4165529,11.43801 17.9498639,11.2604069 C18.6333553,11.0327908 19.3826586,11.1743199 20.1977736,11.6849945 C20.660643,11.9472353 21.0163239,12.3914361 21.1530654,12.9402427 Z" fill="#60a5fa" fill-rule="nonzero"></path>
    </g>
</svg>