<?xml version="1.0" encoding="UTF-8"?>
<svg width="32px" height="32px" viewBox="0 0 32 32" version="1.1" xmlns="http://www.w3.org/2000/svg" xmlns:xlink="http://www.w3.org/1999/xlink">
    <!-- Generator: Sketch 54.1 (76490) - https://sketchapp.com -->
    <title>prompt-shapes</title>
    <desc>Created with Sketch.</desc>
    <g stroke="none" stroke-width="1" fill="none" fill-rule="evenodd">
        <path d="M8.78525404,2.25 L14.8474319,12.75 C15.1235742,13.2282926 14.9596991,13.839883 14.4814065,14.1160254 C14.3293873,14.2037937 14.1569431,14.25 13.9814065,14.25 L1.85705081,14.25 C1.30476606,14.25 0.857050808,13.8022847 0.857050808,13.25 C0.857050808,13.0744633 0.903257072,12.9020192 0.991025404,12.75 L7.05320323,2.25 C7.32934561,1.77170738 7.94093601,1.60783222 8.41922863,1.8839746 C8.57124784,1.97174293 8.69748571,2.09798079 8.78525404,2.25 Z" fill="#60a5fa"></path>
        <path d="M21.9330127,18.6160254 L27.6395281,28.5 C27.9156705,28.9782926 27.7517953,29.589883 27.2735027,29.8660254 C27.1214835,29.9537937 26.9490394,30 26.7735027,30 L22,30 C21.4477153,30 21,29.5522847 21,29 L21,18.8660254 C21,18.589883 21.2238576,18.3660254 21.5,18.3660254 C21.6786328,18.3660254 21.8436963,18.4613249 21.9330127,18.6160254 Z" fill="#60a5fa"></path>
        <rect fill="#60a5fa" x="17.75" y="1.25" width="13" height="13" rx="1"></rect>
        <path d="M4.45710678,18.7071068 L14.0428932,28.2928932 C14.4334175,28.6834175 14.4334175,29.3165825 14.0428932,29.7071068 C13.8553568,29.8946432 13.6010029,30 13.3357864,30 L3.75,30 C3.19771525,30 2.75,29.5522847 2.75,29 L2.75,19.4142136 C2.75,18.8619288 3.19771525,18.4142136 3.75,18.4142136 C4.01521649,18.4142136 4.2695704,18.5195704 4.45710678,18.7071068 Z" fill="#60a5fa"></path>
    </g>
</svg>